# Blender v2.91.2 OBJ File: 'body.blend'
# www.blender.org
mtllib body.mtl
o Cube
v -0.090144 -0.160000 0.090000
v -0.100000 -0.144230 0.081130
v -0.090144 0.160000 0.090000
v -0.100000 0.144230 0.081130
v -0.100000 -0.144230 -0.081130
v -0.090144 -0.160000 -0.090000
v -0.090144 0.160000 -0.090000
v -0.100000 0.144230 -0.081130
v 0.100000 -0.145920 0.082080
v 0.091200 -0.160000 0.090000
v 0.091200 0.160000 0.090000
v 0.100000 0.145920 0.082080
v 0.100000 -0.145920 -0.082080
v 0.091200 -0.160000 -0.090000
v 0.091200 0.160000 -0.090000
v 0.100000 0.145920 -0.082080
v -0.085000 0.160000 -0.060000
v -0.085000 0.280000 -0.060000
v -0.085000 0.160000 -0.080000
v -0.085000 0.280000 -0.080000
v -0.035000 0.160000 -0.060000
v -0.035000 0.280000 -0.060000
v -0.035000 0.160000 -0.080000
v -0.035000 0.280000 -0.080000
v -0.025000 0.160000 0.080000
v -0.025000 0.280000 0.080000
v -0.025000 0.160000 0.060000
v -0.025000 0.280000 0.060000
v 0.025000 0.160000 0.080000
v 0.025000 0.280000 0.080000
v 0.025000 0.160000 0.060000
v 0.025000 0.280000 0.060000
v 0.035000 0.160000 -0.060000
v 0.035000 0.280000 -0.060000
v 0.035000 0.160000 -0.080000
v 0.035000 0.280000 -0.080000
v 0.085000 0.160000 -0.060000
v 0.085000 0.280000 -0.060000
v 0.085000 0.160000 -0.080000
v 0.085000 0.280000 -0.080000
v -0.084571 0.280000 -0.079750
v -0.084571 0.294581 -0.079750
v -0.082803 0.283543 -0.057674
v -0.084294 0.280000 -0.066154
v -0.026645 0.283543 0.074601
v -0.082803 0.291038 -0.057674
v -0.084294 0.294581 -0.066154
v -0.026645 0.291038 0.074601
v 0.026255 0.283696 0.074823
v 0.083320 0.283696 -0.057542
v 0.084784 0.280000 -0.066352
v 0.026255 0.290885 0.074823
v 0.083320 0.290885 -0.057542
v 0.084784 0.294581 -0.066352
v -0.020316 0.282703 0.077897
v -0.024231 0.280487 0.075729
v -0.020316 0.291879 0.077897
v -0.024475 0.294249 0.074931
v 0.019640 0.282703 0.078180
v 0.023840 0.280360 0.075272
v 0.019640 0.291879 0.078180
v 0.023590 0.294063 0.076089
v 0.080649 0.284134 -0.079741
v 0.084784 0.280000 -0.075616
v -0.080408 0.284134 -0.079403
v -0.084870 0.280000 -0.079388
v 0.084784 0.294581 -0.075616
v 0.080649 0.290447 -0.079741
v -0.080408 0.290447 -0.079403
v -0.084544 0.294581 -0.079414
v -0.084571 -0.280000 -0.079750
v -0.084187 -0.280000 -0.060936
v -0.025261 -0.280000 0.077862
v 0.024792 -0.280000 0.078217
v 0.084784 -0.280000 -0.060936
v 0.084784 -0.280000 -0.079750
v -0.084542 -0.280000 -0.079395
v -0.084571 -0.292311 -0.079750
v -0.084187 -0.292311 -0.060936
v -0.025261 -0.292311 0.077862
v 0.024792 -0.292311 0.078217
v 0.084784 -0.292311 -0.060936
v 0.084784 -0.292311 -0.079750
v -0.085000 -0.280000 -0.060000
v -0.085000 -0.160000 -0.060000
v -0.085000 -0.280000 -0.080000
v -0.085000 -0.160000 -0.080000
v -0.035000 -0.280000 -0.060000
v -0.035000 -0.160000 -0.060000
v -0.035000 -0.280000 -0.080000
v -0.035000 -0.160000 -0.080000
v -0.025000 -0.280000 0.080000
v -0.025000 -0.160000 0.080000
v -0.025000 -0.280000 0.060000
v -0.025000 -0.160000 0.060000
v 0.025000 -0.280000 0.080000
v 0.025000 -0.160000 0.080000
v 0.025000 -0.280000 0.060000
v 0.025000 -0.160000 0.060000
v 0.035000 -0.280000 -0.060000
v 0.035000 -0.160000 -0.060000
v 0.035000 -0.280000 -0.080000
v 0.035000 -0.160000 -0.080000
v 0.085000 -0.280000 -0.060000
v 0.085000 -0.160000 -0.060000
v 0.085000 -0.280000 -0.080000
v 0.085000 -0.160000 -0.080000
vt 0.636000 0.500000
vt 0.862680 0.500000
vt 0.862680 0.750000
vt 0.636000 0.750000
vt 0.375000 0.761000
vt 0.625000 0.761000
vt 0.625000 0.987680
vt 0.375000 0.987680
vt 0.375000 0.262320
vt 0.625000 0.262320
vt 0.625000 0.489000
vt 0.375000 0.489000
vt 0.387320 0.012320
vt 0.612680 0.012320
vt 0.612680 0.237680
vt 0.387320 0.237680
vt 0.375000 0.250000
vt 0.375000 0.000000
vt 0.625000 0.000000
vt 0.625000 0.250000
vt 0.386000 0.511000
vt 0.614000 0.511000
vt 0.614000 0.739000
vt 0.386000 0.739000
vt 0.364000 0.750000
vt 0.364000 0.500000
vt 0.137320 0.500000
vt 0.137320 0.750000
vt 0.375000 0.000000
vt 0.625000 0.000000
vt 0.625000 0.250000
vt 0.375000 0.250000
vt 0.625000 0.500000
vt 0.375000 0.500000
vt 0.625000 0.750000
vt 0.375000 0.750000
vt 0.625000 1.000000
vt 0.375000 1.000000
vt 0.125000 0.500000
vt 0.125000 0.750000
vt 0.875000 0.500000
vt 0.875000 0.750000
vt 0.375000 0.000000
vt 0.625000 0.000000
vt 0.625000 0.250000
vt 0.375000 0.250000
vt 0.625000 0.500000
vt 0.375000 0.500000
vt 0.625000 0.750000
vt 0.375000 0.750000
vt 0.625000 1.000000
vt 0.375000 1.000000
vt 0.125000 0.500000
vt 0.125000 0.750000
vt 0.875000 0.500000
vt 0.875000 0.750000
vt 0.375000 0.000000
vt 0.625000 0.000000
vt 0.625000 0.250000
vt 0.375000 0.250000
vt 0.625000 0.500000
vt 0.375000 0.500000
vt 0.625000 0.750000
vt 0.375000 0.750000
vt 0.625000 1.000000
vt 0.375000 1.000000
vt 0.125000 0.500000
vt 0.125000 0.750000
vt 0.875000 0.500000
vt 0.875000 0.750000
vt 0.000000 0.000000
vt 0.000000 0.000000
vt 0.000000 0.000000
vt 0.000000 0.000000
vt 0.000000 0.000000
vt 0.000000 0.000000
vt 0.000000 0.000000
vt 0.000000 0.000000
vt 0.000000 0.000000
vt 0.000000 0.000000
vt 0.000000 0.000000
vt 0.000000 0.000000
vt 0.000000 0.000000
vt 0.000000 0.000000
vt 0.000000 0.000000
vt 0.000000 0.000000
vt 0.000000 0.000000
vt 0.000000 0.000000
vt 0.000000 0.000000
vt 0.000000 0.000000
vt 0.000000 0.000000
vt 0.000000 0.000000
vt 0.000000 0.000000
vt 0.000000 0.000000
vt 0.000000 0.000000
vt 0.000000 0.000000
vt 0.000000 0.000000
vt 0.000000 0.000000
vt 0.000000 0.000000
vt 0.000000 0.000000
vt 0.000000 0.000000
vt 0.000000 0.000000
vt 0.000000 0.000000
vt 0.000000 0.000000
vt 0.000000 0.000000
vt 0.000000 0.000000
vt 0.000000 0.000000
vt 0.000000 0.000000
vt 0.000000 0.000000
vt 0.000000 0.000000
vt 0.000000 0.000000
vt 0.000000 0.000000
vt 0.375000 0.000000
vt 0.625000 0.000000
vt 0.625000 0.250000
vt 0.375000 0.250000
vt 0.625000 0.500000
vt 0.375000 0.500000
vt 0.625000 0.750000
vt 0.375000 0.750000
vt 0.625000 1.000000
vt 0.375000 1.000000
vt 0.125000 0.500000
vt 0.125000 0.750000
vt 0.875000 0.500000
vt 0.875000 0.750000
vt 0.375000 0.000000
vt 0.625000 0.000000
vt 0.625000 0.250000
vt 0.375000 0.250000
vt 0.625000 0.500000
vt 0.375000 0.500000
vt 0.625000 0.750000
vt 0.375000 0.750000
vt 0.625000 1.000000
vt 0.375000 1.000000
vt 0.125000 0.500000
vt 0.125000 0.750000
vt 0.875000 0.500000
vt 0.875000 0.750000
vt 0.375000 0.000000
vt 0.625000 0.000000
vt 0.625000 0.250000
vt 0.375000 0.250000
vt 0.625000 0.500000
vt 0.375000 0.500000
vt 0.625000 0.750000
vt 0.375000 0.750000
vt 0.625000 1.000000
vt 0.375000 1.000000
vt 0.125000 0.500000
vt 0.125000 0.750000
vt 0.875000 0.500000
vt 0.875000 0.750000
vn 0.0000 1.0000 0.0000
vn 0.0000 0.0000 1.0000
vn 0.0000 0.0000 -1.0000
vn -1.0000 0.0000 0.0000
vn -0.8480 -0.5300 0.0000
vn -0.6690 0.0000 0.7433
vn -0.8480 0.5300 0.0000
vn -0.6690 0.0000 -0.7433
vn 1.0000 0.0000 0.0000
vn 0.6690 0.0000 -0.7433
vn 0.8480 -0.5300 0.0000
vn 0.8480 0.5300 0.0000
vn 0.6690 0.0000 0.7433
vn 0.0000 -1.0000 0.0000
vn -0.9205 0.0000 0.3908
vn -0.8015 0.4916 0.3406
vn 0.9321 -0.0101 0.3620
vn 0.0007 1.0000 0.0027
vn 0.3205 -0.0332 0.9467
vn 0.9183 0.0000 0.3959
vn -0.3039 0.0322 0.9522
vn -0.0071 0.0000 1.0000
vn -0.9849 0.0000 0.1732
vn -0.9998 0.0000 0.0204
vn 0.7889 0.5116 0.3404
vn 0.9865 0.0000 0.1638
vn 0.7889 -0.5116 0.3404
vn -0.8015 -0.4916 0.3406
vn -0.5362 0.0236 0.8438
vn 0.5225 -0.0247 0.8523
vn 0.0002 -0.7441 0.6681
vn -0.0094 0.7429 0.6693
vn -0.0021 0.0000 -1.0000
vn 0.0093 -0.4481 -0.8939
vn 0.0094 0.4455 -0.8952
vn -0.0006 -0.0013 -1.0000
vn 0.7064 0.0000 -0.7078
vn -0.0005 -1.0000 0.0027
vn -0.9183 0.0000 -0.3959
vn 0.9205 0.0000 -0.3908
vn 0.0071 0.0000 -1.0000
vn 0.9998 0.0000 -0.0204
usemtl None
s off
f 15/1/1 7/2/1 3/3/1 11/4/1
f 10/5/2 11/6/2 3/7/2 1/8/2
f 6/9/3 7/10/3 15/11/3 14/12/3
f 2/13/4 4/14/4 8/15/4 5/16/4
f 6/17/5 1/18/5 2/13/5 5/16/5
f 1/18/6 3/19/6 4/14/6 2/13/6
f 3/19/7 7/20/7 8/15/7 4/14/7
f 7/10/8 6/9/8 5/16/8 8/15/8
f 13/21/9 16/22/9 12/23/9 9/24/9
f 16/22/10 13/21/10 14/12/10 15/11/10
f 10/25/11 14/26/11 13/21/11 9/24/11
f 15/1/12 11/4/12 12/23/12 16/22/12
f 11/6/13 10/5/13 9/24/13 12/23/13
f 6/27/14 14/26/14 10/25/14 1/28/14
f 17/29/4 18/30/4 20/31/4 19/32/4
f 19/32/3 20/31/3 24/33/3 23/34/3
f 23/34/9 24/33/9 22/35/9 21/36/9
f 21/36/2 22/35/2 18/37/2 17/38/2
f 19/39/14 23/34/14 21/36/14 17/40/14
f 24/33/1 20/41/1 18/42/1 22/35/1
f 25/43/4 26/44/4 28/45/4 27/46/4
f 27/46/3 28/45/3 32/47/3 31/48/3
f 31/48/9 32/47/9 30/49/9 29/50/9
f 29/50/2 30/49/2 26/51/2 25/52/2
f 27/53/14 31/48/14 29/50/14 25/54/14
f 32/47/1 28/55/1 26/56/1 30/49/1
f 33/57/4 34/58/4 36/59/4 35/60/4
f 35/60/3 36/59/3 40/61/3 39/62/3
f 39/62/9 40/61/9 38/63/9 37/64/9
f 37/64/2 38/63/2 34/65/2 33/66/2
f 35/67/14 39/62/14 37/64/14 33/68/14
f 40/61/1 36/69/1 34/70/1 38/63/1
f 43/71/15 45/72/15 48/73/15 46/74/15
f 51/75/9 64/76/9 67/77/9 54/78/9
f 46/74/16 48/73/16 58/79/16 47/80/16
f 66/81/17 41/82/17 42/83/17 70/84/17
f 47/80/18 58/79/18 62/85/18 54/78/18 67/77/18 70/84/18 42/83/18
f 62/85/19 60/86/19 49/87/19 52/88/19
f 49/87/20 50/89/20 53/90/20 52/88/20
f 56/91/21 58/79/21 48/73/21 45/72/21
f 55/92/22 59/93/22 61/94/22 57/95/22
f 47/80/23 44/96/23 43/71/23 46/74/23
f 41/82/24 44/96/24 47/80/24 42/83/24
f 52/88/25 53/90/25 54/78/25 62/85/25
f 51/75/26 54/78/26 53/90/26 50/89/26
f 60/86/27 51/75/27 50/89/27 49/87/27
f 44/96/28 56/91/28 45/72/28 43/71/28
f 55/92/29 57/95/29 58/79/29 56/91/29
f 61/94/30 59/93/30 60/86/30 62/85/30
f 59/93/31 55/92/31 56/91/31 60/86/31
f 62/85/32 58/79/32 57/95/32 61/94/32
f 63/97/33 65/98/33 69/99/33 68/100/33
f 64/76/34 66/81/34 65/98/34 63/97/34
f 68/100/35 69/99/35 70/84/35 67/77/35
f 66/81/36 70/84/36 69/99/36 65/98/36
f 67/77/37 64/76/37 63/97/37 68/100/37
f 44/96/38 41/82/38 66/81/38 64/76/38 51/75/38 60/86/38 56/91/38
f 72/101/14 71/102/14 76/103/14 75/104/14 74/105/14 73/106/14
f 79/107/1 80/108/1 81/109/1 82/110/1 83/111/1 78/112/1
f 74/105/39 75/104/39 82/110/39 81/109/39
f 72/101/40 73/106/40 80/108/40 79/107/40
f 76/103/2 71/102/2 78/112/2 83/111/2
f 75/104/4 76/103/4 83/111/4 82/110/4
f 73/106/41 74/105/41 81/109/41 80/108/41
f 71/102/42 72/101/42 79/107/42 78/112/42
f 84/113/4 85/114/4 87/115/4 86/116/4
f 86/116/3 87/115/3 91/117/3 90/118/3
f 90/118/9 91/117/9 89/119/9 88/120/9
f 88/120/2 89/119/2 85/121/2 84/122/2
f 86/123/14 90/118/14 88/120/14 84/124/14
f 91/117/1 87/125/1 85/126/1 89/119/1
f 92/127/4 93/128/4 95/129/4 94/130/4
f 94/130/3 95/129/3 99/131/3 98/132/3
f 98/132/9 99/131/9 97/133/9 96/134/9
f 96/134/2 97/133/2 93/135/2 92/136/2
f 94/137/14 98/132/14 96/134/14 92/138/14
f 99/131/1 95/139/1 93/140/1 97/133/1
f 100/141/4 101/142/4 103/143/4 102/144/4
f 102/144/3 103/143/3 107/145/3 106/146/3
f 106/146/9 107/145/9 105/147/9 104/148/9
f 104/148/2 105/147/2 101/149/2 100/150/2
f 102/151/14 106/146/14 104/148/14 100/152/14
f 107/145/1 103/153/1 101/154/1 105/147/1
l 76 77
